<mxfile host="app.diagrams.net" agent="Mozilla/5.0 (X11; Linux x86_64; rv:133.0) Gecko/20100101 Firefox/133.0" version="25.0.3">
  <diagram name="Page-1" id="JPEwylU8dfQIfxEcXzJT">
    <mxGraphModel dx="1212" dy="1172" grid="1" gridSize="10" guides="1" tooltips="1" connect="1" arrows="1" fold="1" page="1" pageScale="1" pageWidth="850" pageHeight="1100" math="0" shadow="0">
      <root>
        <mxCell id="0" />
        <mxCell id="1" parent="0" />
        <mxCell id="2EsNyxbGZrvwqM7i_yYH-1" value="text input" style="rounded=0;whiteSpace=wrap;html=1;" vertex="1" parent="1">
          <mxGeometry x="210" y="160" width="410" height="280" as="geometry" />
        </mxCell>
        <mxCell id="2EsNyxbGZrvwqM7i_yYH-2" value="upload file epub" style="rounded=1;whiteSpace=wrap;html=1;" vertex="1" parent="1">
          <mxGeometry x="210" y="460" width="410" height="60" as="geometry" />
        </mxCell>
        <mxCell id="2EsNyxbGZrvwqM7i_yYH-3" value="&lt;div&gt;or&lt;/div&gt;&lt;div&gt;&lt;br&gt;&lt;/div&gt;" style="text;html=1;align=center;verticalAlign=middle;resizable=0;points=[];autosize=1;strokeColor=none;fillColor=none;" vertex="1" parent="1">
          <mxGeometry x="395" y="433" width="30" height="40" as="geometry" />
        </mxCell>
        <mxCell id="2EsNyxbGZrvwqM7i_yYH-7" value="" style="edgeStyle=orthogonalEdgeStyle;rounded=0;orthogonalLoop=1;jettySize=auto;html=1;startArrow=classic;" edge="1" parent="1" source="2EsNyxbGZrvwqM7i_yYH-4" target="2EsNyxbGZrvwqM7i_yYH-6">
          <mxGeometry relative="1" as="geometry" />
        </mxCell>
        <mxCell id="2EsNyxbGZrvwqM7i_yYH-20" value="" style="edgeStyle=orthogonalEdgeStyle;rounded=0;orthogonalLoop=1;jettySize=auto;html=1;" edge="1" parent="1" source="2EsNyxbGZrvwqM7i_yYH-4" target="2EsNyxbGZrvwqM7i_yYH-19">
          <mxGeometry relative="1" as="geometry" />
        </mxCell>
        <mxCell id="2EsNyxbGZrvwqM7i_yYH-4" value="loading" style="rounded=0;whiteSpace=wrap;html=1;" vertex="1" parent="1">
          <mxGeometry x="350" y="680" width="120" height="60" as="geometry" />
        </mxCell>
        <mxCell id="2EsNyxbGZrvwqM7i_yYH-5" value="" style="endArrow=none;html=1;rounded=0;entryX=0.485;entryY=0.983;entryDx=0;entryDy=0;entryPerimeter=0;exitX=0.5;exitY=0;exitDx=0;exitDy=0;" edge="1" parent="1" source="2EsNyxbGZrvwqM7i_yYH-4" target="2EsNyxbGZrvwqM7i_yYH-2">
          <mxGeometry width="50" height="50" relative="1" as="geometry">
            <mxPoint x="490" y="800" as="sourcePoint" />
            <mxPoint x="540" y="750" as="targetPoint" />
            <Array as="points" />
          </mxGeometry>
        </mxCell>
        <mxCell id="2EsNyxbGZrvwqM7i_yYH-11" value="" style="edgeStyle=orthogonalEdgeStyle;rounded=0;orthogonalLoop=1;jettySize=auto;html=1;" edge="1" parent="1" source="2EsNyxbGZrvwqM7i_yYH-6" target="2EsNyxbGZrvwqM7i_yYH-10">
          <mxGeometry relative="1" as="geometry" />
        </mxCell>
        <mxCell id="2EsNyxbGZrvwqM7i_yYH-13" value="" style="edgeStyle=orthogonalEdgeStyle;rounded=0;orthogonalLoop=1;jettySize=auto;html=1;" edge="1" parent="1" source="2EsNyxbGZrvwqM7i_yYH-6" target="2EsNyxbGZrvwqM7i_yYH-12">
          <mxGeometry relative="1" as="geometry" />
        </mxCell>
        <mxCell id="2EsNyxbGZrvwqM7i_yYH-6" value="/api/generateimages" style="rounded=0;whiteSpace=wrap;html=1;" vertex="1" parent="1">
          <mxGeometry x="550" y="680" width="120" height="60" as="geometry" />
        </mxCell>
        <mxCell id="2EsNyxbGZrvwqM7i_yYH-8" value="concise /&lt;br&gt;gemini" style="rounded=0;whiteSpace=wrap;html=1;" vertex="1" parent="1">
          <mxGeometry x="700" y="550" width="120" height="60" as="geometry" />
        </mxCell>
        <mxCell id="2EsNyxbGZrvwqM7i_yYH-15" value="" style="edgeStyle=orthogonalEdgeStyle;rounded=0;orthogonalLoop=1;jettySize=auto;html=1;" edge="1" parent="1" source="2EsNyxbGZrvwqM7i_yYH-10" target="2EsNyxbGZrvwqM7i_yYH-14">
          <mxGeometry relative="1" as="geometry" />
        </mxCell>
        <mxCell id="2EsNyxbGZrvwqM7i_yYH-10" value="audio /&lt;br&gt;playht" style="rounded=0;whiteSpace=wrap;html=1;" vertex="1" parent="1">
          <mxGeometry x="490" y="820" width="120" height="60" as="geometry" />
        </mxCell>
        <mxCell id="2EsNyxbGZrvwqM7i_yYH-12" value="image gen /&lt;br&gt; " style="rounded=0;whiteSpace=wrap;html=1;" vertex="1" parent="1">
          <mxGeometry x="650" y="820" width="120" height="60" as="geometry" />
        </mxCell>
        <mxCell id="2EsNyxbGZrvwqM7i_yYH-14" value="&lt;div&gt;ffmpeg combine&lt;/div&gt;&lt;div&gt;audio, image and sub&lt;br&gt;&lt;/div&gt;" style="rounded=0;whiteSpace=wrap;html=1;" vertex="1" parent="1">
          <mxGeometry x="570" y="960" width="120" height="60" as="geometry" />
        </mxCell>
        <mxCell id="2EsNyxbGZrvwqM7i_yYH-17" value="" style="endArrow=classic;html=1;rounded=0;entryX=0.5;entryY=0;entryDx=0;entryDy=0;exitX=0.5;exitY=1;exitDx=0;exitDy=0;" edge="1" parent="1" source="2EsNyxbGZrvwqM7i_yYH-12" target="2EsNyxbGZrvwqM7i_yYH-14">
          <mxGeometry width="50" height="50" relative="1" as="geometry">
            <mxPoint x="490" y="850" as="sourcePoint" />
            <mxPoint x="540" y="800" as="targetPoint" />
            <Array as="points">
              <mxPoint x="630" y="920" />
            </Array>
          </mxGeometry>
        </mxCell>
        <mxCell id="2EsNyxbGZrvwqM7i_yYH-18" value="" style="endArrow=classic;startArrow=classic;html=1;rounded=0;entryX=0;entryY=1;entryDx=0;entryDy=0;exitX=1;exitY=0;exitDx=0;exitDy=0;" edge="1" parent="1" source="2EsNyxbGZrvwqM7i_yYH-6" target="2EsNyxbGZrvwqM7i_yYH-8">
          <mxGeometry width="50" height="50" relative="1" as="geometry">
            <mxPoint x="490" y="800" as="sourcePoint" />
            <mxPoint x="540" y="750" as="targetPoint" />
          </mxGeometry>
        </mxCell>
        <mxCell id="2EsNyxbGZrvwqM7i_yYH-19" value="play the result video" style="rounded=0;whiteSpace=wrap;html=1;" vertex="1" parent="1">
          <mxGeometry x="280" y="830" width="120" height="60" as="geometry" />
        </mxCell>
      </root>
    </mxGraphModel>
  </diagram>
</mxfile>
